<svg width="16" height="16" viewBox="0 0 16 16" fill="none" xmlns="http://www.w3.org/2000/svg">
<path fill-rule="evenodd" clip-rule="evenodd" d="M13.1777 10.4888C13.3857 10.2924 13.3857 9.97487 13.1777 9.77899L8.77042 5.62731C8.67327 5.53438 8.55635 5.46038 8.42676 5.40981C8.29717 5.35925 8.15762 5.33317 8.01659 5.33317C7.87557 5.33317 7.73602 5.35925 7.60643 5.40981C7.47684 5.46038 7.35991 5.53438 7.26276 5.62731L2.82299 9.80906C2.72377 9.90396 2.668 10.0296 2.66701 10.1606C2.66602 10.2915 2.71988 10.4179 2.81766 10.514C2.86594 10.5616 2.92447 10.5997 2.98961 10.626C3.05475 10.6522 3.12512 10.666 3.19636 10.6665C3.26761 10.667 3.3382 10.6542 3.40378 10.6289C3.46936 10.6036 3.52853 10.5663 3.57762 10.5193L7.63981 6.69202C7.68839 6.64552 7.74687 6.60848 7.81169 6.58318C7.87651 6.55787 7.94632 6.54482 8.01686 6.54482C8.0874 6.54482 8.15721 6.55787 8.22203 6.58318C8.28685 6.60848 8.34533 6.64552 8.39391 6.69202L12.4241 10.4888C12.4726 10.5353 12.5311 10.5723 12.5958 10.5976C12.6606 10.6229 12.7304 10.636 12.8009 10.636C12.8714 10.636 12.9412 10.6229 13.0059 10.5976C13.0707 10.5723 13.1291 10.5353 13.1777 10.4888Z" fill="#ffffff"/>
</svg>
