<svg width="22" height="22" viewBox="0 0 22 22" fill="none" xmlns="http://www.w3.org/2000/svg">
<path d="M4.18988 5.37994C3.99988 5.37994 3.79988 5.29994 3.65988 5.15994C3.36988 4.86994 3.36988 4.38994 3.65988 4.09994L7.28988 0.469941C7.57988 0.179941 8.05988 0.179941 8.34988 0.469941C8.63988 0.759941 8.63988 1.23994 8.34988 1.52994L4.71988 5.15994C4.56988 5.29994 4.37988 5.37994 4.18988 5.37994Z" fill="black"/>
<path d="M17.8101 5.37994C17.6201 5.37994 17.4301 5.30994 17.2801 5.15994L13.6501 1.52994C13.3601 1.23994 13.3601 0.759941 13.6501 0.469941C13.9401 0.179941 14.4201 0.179941 14.7101 0.469941L18.3401 4.09994C18.6301 4.38994 18.6301 4.86994 18.3401 5.15994C18.2001 5.29994 18.0001 5.37994 17.8101 5.37994Z" fill="black"/>
<path d="M19.21 9.59991C19.14 9.59991 19.07 9.59991 19 9.59991H3C2.3 9.60991 1.5 9.6099 0.92 9.0299C0.46 8.57994 0.25 7.87995 0.25 6.84995C0.25 4.09995 2.26 4.09995 3.22 4.09995H18.78C19.74 4.09995 21.75 4.09995 21.75 6.84995C21.75 7.88995 21.54 8.57994 21.08 9.0299C20.56 9.5499 19.86 9.59991 19.21 9.59991ZM19.01 8.09995C19.46 8.10995 19.88 8.10995 20.02 7.96995C20.09 7.89995 20.24 7.65995 20.24 6.84995C20.24 5.71995 19.96 5.59995 18.77 5.59995H3.22C2.03 5.59995 1.75 5.71995 1.75 6.84995C1.75 7.65995 1.91 7.89995 1.97 7.96995C2.11 8.09995 2.54 8.09995 2.98 8.09995H19.01Z" fill="black"/>
<path d="M8.75977 17.2999C8.34977 17.2999 8.00977 16.9599 8.00977 16.5499V12.9999C8.00977 12.5899 8.34977 12.2499 8.75977 12.2499C9.16977 12.2499 9.50977 12.5899 9.50977 12.9999V16.5499C9.50977 16.9699 9.16977 17.2999 8.75977 17.2999Z" fill="black"/>
<path d="M13.3604 17.2999C12.9504 17.2999 12.6104 16.9599 12.6104 16.5499V12.9999C12.6104 12.5899 12.9504 12.2499 13.3604 12.2499C13.7704 12.2499 14.1104 12.5899 14.1104 12.9999V16.5499C14.1104 16.9699 13.7704 17.2999 13.3604 17.2999Z" fill="black"/>
<path d="M13.8898 21.7499H7.85975C4.27975 21.7499 3.47975 19.6199 3.16975 17.7699L1.75975 9.1199C1.68975 8.70994 1.96975 8.32994 2.37975 8.25994C2.78975 8.18994 3.16975 8.46994 3.23975 8.87994L4.64975 17.5199C4.93975 19.2899 5.53975 20.2499 7.85975 20.2499H13.8898C16.4598 20.2499 16.7498 19.3499 17.0798 17.6099L18.7598 8.85994C18.8398 8.44994 19.2298 8.17994 19.6398 8.26994C20.0498 8.34994 20.3098 8.73994 20.2298 9.1499L18.5498 17.8999C18.1598 19.9299 17.5098 21.7499 13.8898 21.7499Z" fill="black"/>
</svg>
