<svg width="22" height="22" viewBox="0 0 22 22" fill="none" xmlns="http://www.w3.org/2000/svg">
<path d="M0.95 11V10.9999C0.953034 8.33545 2.01284 5.78097 3.89691 3.89691C5.78098 2.01284 8.33545 0.953034 10.9999 0.95L11 0.95C13.6645 0.953034 16.219 2.01284 18.1031 3.89691C19.9871 5.78097 21.0469 8.33545 21.05 10.9999V11C21.0469 13.6645 19.9871 16.219 18.1031 18.1031C16.219 19.9871 13.6646 21.0469 11.0001 21.05L0.95 11ZM0.95 11C0.95 13.685 1.996 16.2083 3.89439 18.1054M0.95 11L3.89439 18.1054M6.6044 11.0258C6.60443 12.3345 7.20417 13.4943 8.1286 14.2836C6.77877 14.7596 5.57305 15.5734 4.62651 16.6475C3.23862 15.0949 2.47226 13.0839 2.47572 11.0001V11C2.47834 8.74006 3.37728 6.57339 4.97533 4.97533C6.57337 3.3773 8.74002 2.47836 11 2.47572C13.2599 2.47836 15.4266 3.3773 17.0246 4.97533C18.6227 6.57338 19.5216 8.74003 19.5242 11C19.5223 13.1245 18.7232 15.1702 17.2861 16.733C16.3343 15.6216 15.1078 14.7792 13.7291 14.2896C14.1969 13.894 14.5756 13.4033 14.8398 12.8497C15.1168 12.2694 15.2608 11.6346 15.2616 10.9915V10.9913C15.2599 10.4226 15.146 9.85987 14.9264 9.33529C14.7069 8.81071 14.386 8.3346 13.9822 7.93424C13.5783 7.53388 13.0994 7.21713 12.573 7.00215C12.0465 6.78717 11.4829 6.67816 10.9142 6.68138M6.6044 11.0258C6.60156 10.4574 6.71085 9.89404 6.92599 9.36796C7.14115 8.84183 7.45796 8.3633 7.85828 7.95976C8.2586 7.55622 8.73459 7.23559 9.25898 7.01623C9.78334 6.79688 10.3458 6.68309 10.9142 6.68138M6.6044 11.0258C6.6044 11.0257 6.6044 11.0257 6.6044 11.0256H6.6544L6.6044 11.0259C6.6044 11.0259 6.6044 11.0258 6.6044 11.0258ZM10.9142 6.68138C10.9142 6.68138 10.9143 6.68138 10.9143 6.68138L10.9144 6.73138L10.9142 6.68138C10.9142 6.68138 10.9142 6.68138 10.9142 6.68138ZM3.89439 18.1054C4.82514 19.0418 5.93245 19.7843 7.15218 20.2897M3.89439 18.1054L7.15218 20.2897M7.15218 20.2897C8.37189 20.7952 9.67976 21.0536 11 21.05L7.15218 20.2897ZM8.18338 14.2645C8.1983 14.2771 8.2133 14.2896 8.22839 14.3019C8.2099 14.3082 8.19144 14.3146 8.173 14.321L8.18338 14.2645ZM2.42572 11C2.42836 8.72676 3.33256 6.54739 4.93998 4.93998C6.54739 3.33256 8.72676 2.42836 11 2.42572C13.2732 2.42836 15.4526 3.33256 17.06 4.93998L2.42572 11ZM10.9508 8.2071C12.4864 8.20748 13.7343 9.45622 13.7344 11.0255C13.7326 11.747 13.4508 12.4396 12.9484 12.9575C12.4462 13.4751 11.7628 13.7776 11.042 13.8014C11.0246 13.8014 11.0071 13.7996 10.9867 13.7974L10.9856 13.7973C10.966 13.7952 10.9434 13.7929 10.9201 13.7929C10.8993 13.7929 10.8793 13.795 10.8618 13.7969L10.8562 13.7976C10.8411 13.7993 10.8279 13.8008 10.8146 13.8014C10.0908 13.7725 9.40648 13.4636 8.90613 12.9397C8.40531 12.4154 8.12805 11.7168 8.13296 10.9918V10.9914C8.13296 9.45708 9.38155 8.20748 10.9508 8.2071ZM16.1608 17.7644C14.6826 18.9048 12.8679 19.5239 11 19.5242H10.9999C9.08924 19.5281 7.23416 18.8847 5.73665 17.6997C6.36227 16.9754 7.13263 16.3899 7.99835 15.9809C8.87916 15.5647 9.83848 15.3409 10.8125 15.3243C10.8257 15.325 10.8393 15.3272 10.8568 15.3299C10.8737 15.3326 10.8944 15.3357 10.9159 15.3357H10.9501C10.9709 15.3357 10.9892 15.3323 11.0035 15.3297L11.0055 15.3293C11.019 15.3267 11.0289 15.3249 11.0393 15.3243C12.0261 15.3418 12.9975 15.5723 13.887 16.0001C14.7615 16.4206 15.5365 17.0221 16.1608 17.7644Z" fill="#6C757D" stroke="#6C757D" stroke-width="0.1"/>
</svg>
